<?xml version="1.0" encoding="utf-8"?>
<!-- Generator: Adobe Illustrator 21.0.0, SVG Export Plug-In . SVG Version: 6.00 Build 0)  -->
<svg version="1.1" id="Layer_10_copy_3" xmlns="http://www.w3.org/2000/svg" xmlns:xlink="http://www.w3.org/1999/xlink" x="0px"
	 y="0px" viewBox="0 0 368 144.8" style="enable-background:new 0 0 368 144.8;" xml:space="preserve">
<style type="text/css">
	.st0{fill:none;}
	.st1{fill:#FFFFFF;}
</style>
<rect y="-47.2" class="st0" width="368" height="227"/>
<g>
	<g>
		<path class="st1" d="M212.7,87.8c-0.5,0.5-1.3,1.5-2.3,2.9c-1.1,1.4-2.2,3-3.5,4.8c-1.2,1.7-2.5,3.7-3.9,5.6
			c-1.3,1.9-2.4,3.7-3.4,5.1c-0.9,0.8-1.7,1.3-2.4,1.7c-0.7,0.3-1.8,0.7-3.3,1c-0.7-0.4-1-0.9-1-1.4c0-0.8,0.7-1.8,2.2-3.1
			c1.5-2.4,3.1-4.9,4.9-7.1s3.9-5.1,6.4-8.4c4.7-6,8-10.7,10.2-13.9c0.6-0.9,1.1-1.7,1.5-2.3c0.4-0.6,0.7-1.3,1-2.2
			c0.3-0.8,0.6-1.9,0.9-3.4c0.3-1.4,0.6-3.1,1-5.2l0.1-0.9c0.2-1,0.5-1.6,0.8-1.9s1.3-0.9,2.8-1.6c0.4-0.2,1-0.5,1.6-0.9
			c0.7-0.5,1.3-0.7,1.8-0.7c1,0,1.7,0.4,2.4,1.3c0.6,0.9,0.9,2,0.9,3.4c0,6.5-0.1,10.9-0.2,13.1c0,1.7-0.2,4-0.6,6.7
			c-0.3,2.5-0.5,4.6-0.5,5.9c0,1.3,0.2,2.5,0.4,3.6c0.2,1,0.5,2.1,0.8,3.4c0,0,0,0.1,0.1,0.3c0.1,0.3,0.3,0.7,0.7,1.1
			c0.4,0.4,0.8,0.8,1.3,1c0,0,0.1,0,0.2,0.1c1.2,0.6,2.3,0.9,3,0.9l0.3-0.1c0.1,0,0.2,0,0.3,0c1.2-0.3,2.4-1,3.6-1.9
			c1.1-1,2.4-2.3,3.9-4.1c2.4-2.8,4.5-5.3,6.1-7.4c1.6-2.1,2.8-4,3.7-5.5c0.8-1.5,1.4-2.7,1.7-3.8s0.5-1.9,0.5-2.7
			c0-1,0.2-2.5,0.4-4.8c0.1-1.9,0.2-3.4,0.3-4.3c0-0.3,0.1-0.7,0.3-1.3c0.2-0.6,0.3-1.2,0.5-1.8c0.1-0.6,0.2-1.3,0.2-2.1
			c0-3.1,0.1-5.4,0.3-6.6c0.2-1.2,0.6-2.1,1.3-2.5c0.1-0.1,0.5-0.3,1-0.7c0.8-0.6,1.5-1.1,2-1.4c0.6-0.3,1.1-0.5,1.5-0.5
			c1,0,1.7,0.3,2.2,0.9c0.5,0.6,0.8,1.2,0.8,1.8c0,0.1,0,0.2,0,0.3c0,0.1-0.1,0.2-0.1,0.3c-0.2,0.9-0.3,1.9-0.4,3
			c-0.1,1.1-0.1,2.4-0.2,4c0,2.2-0.1,3.5-0.3,3.8c-0.7,1.6-1.3,3.1-1.7,4.6c-0.4,1.4-0.8,2.8-1,4.2l-0.1,0.6
			c-0.4,1.4-0.8,2.6-1.2,3.8s-0.9,2.1-1.4,3s-1.1,1.9-1.8,2.8c-0.6,1-1.6,2.3-2.8,4.1c-2.3,3.3-4.4,6.2-6.1,8.7
			c-1.2,1.6-2.4,2.8-3.5,3.7c-1,0.8-2,1.5-3.1,2.1c-0.7,0.4-1.1,0.7-1.3,0.9c-0.7,0.8-1.5,1.4-2.4,1.9c-0.9,0.5-2,1.1-3.4,1.7
			c-1.6,0.9-3.3,1.3-4.8,1.3c-1.1,0-2-0.2-2.5-0.7c-1.4-1.2-2.5-2.3-3.4-3.5c-0.7-1.1-1.1-2-1.2-2.8c0-0.3,0-0.9,0.1-1.7
			c0.1-1,0.1-1.7,0.1-2.1c0-0.5,0-0.9-0.1-1.2c-0.3-0.8-0.5-1.7-0.5-2.6c-0.1-0.9-0.1-2.5-0.1-4.9c0-2.4-0.1-4-0.1-4.4v-6.9
			C221.3,76.8,217.5,82.1,212.7,87.8z"/>
		<path class="st1" d="M285.4,87.6c-3,1.2-6.2,1.8-9.7,1.8c-0.3,0-0.6,0-1.1-0.1c-0.6,0-0.9,0-1,0c-0.6,0.7-1.2,1.4-1.7,2
			c-1.2,1.3-2,2.3-2.3,2.8c-0.3,0.6-0.5,1.4-0.5,2.5c0,0.9,0.4,1.5,1.2,1.8s1.5,0.5,2.1,0.5c0.9,0,2-0.2,3.3-0.5
			c1.2-0.4,2.9-0.9,5.1-1.7l0.4-0.1c0.4-0.2,1.4-0.7,3-1.6c1.1-0.6,2-1.1,2.6-1.4c0.6-0.3,1.2-0.6,1.6-0.7c0.3-0.1,0.9-0.6,1.8-1.2
			c0.7-0.6,1.2-0.9,1.4-0.9c0.1,0,0.1,0.1,0.1,0.2c-0.2,1-0.4,1.6-0.6,2s-0.5,0.7-0.8,1c-0.3,0.2-0.5,0.5-0.7,0.7
			c-0.6,0.6-1.8,1.4-3.6,2.4c-1.8,1-3.6,1.8-5.4,2.6c-2.9,1.2-5.6,2.3-8,3.1c-2.4,0.8-4,1.2-4.8,1.2c-3.6,0-5.4-1.2-5.4-3.6
			c0-1.3,0.2-2.5,0.6-3.8c0.4-1.2,0.9-2.2,1.4-3.1c0.2-0.4,0.8-1.3,1.8-2.5c0.7-0.9,1.2-1.6,1.5-2.1c0.3-0.5,0.5-0.9,0.5-1
			c0,0,0-0.1-0.1-0.1s-0.1-0.1-0.1-0.3c0-0.2,0.2-0.6,0.5-1c0.3-0.5,0.7-0.9,1.2-1.4c0.5-0.5,0.9-0.9,1.4-1.3s0.8-0.6,1-0.7
			c0.2,0,0.6-0.4,1.2-1s1.3-1.4,2.1-2.3c0.7-0.9,1.3-1.6,1.8-2.1c0.5-0.5,0.9-1,1.3-1.3c1.2-1.2,2.3-2.2,3.7-3.4
			c1.2-1,2.5-1.9,3.7-2.7c1.2-0.8,2.3-1.4,3.4-1.8c1-0.5,1.8-0.7,2.5-0.7c2.8,0.7,4.3,2.2,4.3,4.6c0,2.1-1.3,5.3-3.9,9.5
			C290.9,84.5,288.5,86.4,285.4,87.6z M287.5,81.1c1.2-1.2,2.2-2.6,3-4.2c0.3-0.7,0.5-1.2,0.5-1.7c0-0.8-0.4-1.2-1.2-1.2
			c-0.4,0-0.9,0.1-1.4,0.4c-0.6,0.2-1.6,0.9-3,1.9s-2.6,2.2-3.7,3.5c-0.5,0.4-0.9,0.8-1.1,1.1c-0.2,0.3-0.3,0.6-0.4,1
			c-0.1,0.3-0.2,0.5-0.4,0.6c-1,0.7-1.4,1.2-1.4,1.5c0,0.2,0.3,0.4,0.8,0.4c0.5,0,1.2-0.1,2.1-0.3c0.9-0.2,1.9-0.4,3-0.7
			C285.2,83.1,286.4,82.3,287.5,81.1z"/>
		<path class="st1" d="M311.6,98.7c-0.4,0.5-0.8,1.1-1.4,1.7c-0.6,0.6-1.2,1.2-1.8,1.7c-0.6,0.5-1.3,0.9-1.9,1
			c-1,0.3-2.2,0.6-3.7,0.8c-1.4,0.2-2.6,0.4-3.8,0.4c-1.2,0-2.6-0.3-4.4-0.6c-1.7-0.4-3-0.8-4.2-1.2c-0.4,0-0.8-0.2-1.1-0.4
			c-0.4-0.2-0.5-0.5-0.5-0.9s0.3-0.8,0.8-1.4c0.6-0.5,1.3-0.9,2.3-1.2c0.2-0.5,0.4-0.9,0.7-1.2c0.3-0.3,0.8-0.6,1.5-1.1l0.1-0.1
			c0.1,0,0.2,0,0.2,0c0.4,0,0.7,0.4,0.9,1.2c0.4,0.2,1.1,0.4,1.9,0.7c0.9,0.3,1.7,0.5,2.6,0.7c0.8,0.2,1.7,0.4,2.6,0.5
			c0.9,0.2,1.7,0.3,2.3,0.3c1.2,0,1.8-0.3,1.8-0.9c0-0.2-0.1-0.6-0.3-0.9c0-0.1-0.1-0.4-0.2-0.9c-0.2-0.6-0.4-1.2-0.6-1.6
			c-0.2-0.5-0.6-1-1.1-1.8c-0.8-1.2-1.4-2.5-1.8-3.9c-0.4-1.3-0.6-2.4-0.6-3.4c0-1,0.1-1.9,0.4-2.7c0.3-0.8,0.6-1.7,1.1-2.8
			c0.3-0.7,0.5-1,0.5-1.1c0.4-0.9,1-1.7,1.8-2.7c0.8-0.9,1.7-1.8,2.7-2.6c1-0.8,2-1.6,3-2.2c1-0.7,1.9-1.2,2.7-1.6
			c2.1-1,4.1-1.5,5.8-1.5c1.1,0,2,0.2,2.6,0.6c0.4,0.3,0.6,0.8,0.6,1.4c0,0.5-0.2,1.1-0.5,1.7c-0.2,0.5-0.7,1.1-1.3,2
			c-0.6,0.8-1.3,1.8-2.1,2.8c-0.8,1.1-1.6,2-2.4,2.9c-0.8,0.9-1.5,1.7-2.2,2.2c-0.1,0-0.2,0.1-0.4,0.2c-0.3,0.1-0.5,0.2-0.6,0.2
			c-0.2,0-0.5-0.2-0.7-0.7c0-0.1,0.4-0.6,1.1-1.4c0.8-1.1,1.5-2,2.1-2.8c0.6-0.8,1-1.5,1.3-2.1c0.1-0.2,0.2-0.5,0.2-0.9
			c0-0.5-0.2-0.9-0.5-1.3c-0.3-0.4-0.8-0.5-1.4-0.5c-0.3,0-0.9,0.2-1.7,0.6c-0.5,0.2-1,0.4-1.4,0.6c-1.3,0.6-2.3,1.2-2.9,1.8
			c-0.6,0.6-1.1,1.3-1.3,2.1c-0.1,0.4-0.3,0.8-0.5,1.2c-0.3,0.4-0.5,0.9-0.6,1.4c-0.1,0.5-0.2,1.4-0.3,2.6c0,1,0.1,1.7,0.3,2.3
			s0.7,1.5,1.4,2.6c0.3,0.4,0.5,0.7,0.6,1.1c0,0.2,0.1,0.4,0.3,0.7c0.1,0.3,0.4,0.7,0.9,1.4c0.4,0.6,0.6,1.1,0.8,1.6
			c0.1,0.4,0.2,1,0.2,1.6c0,0.2,0,0.6,0.1,1.1c0.1,0.6,0.2,1.1,0.2,1.4C312.2,97.8,312,98.1,311.6,98.7z"/>
		<path class="st1" d="M329.8,76.9c0-0.1,0-0.1-0.1-0.1c-0.4,0-1,0.4-1.9,1.1c-0.9,0.7-1.6,1.7-2.3,2.8c-0.1-1.2-0.2-2.1-0.2-2.6
			c0-0.8,0.1-1.5,0.4-2.1c0.8-1.5,1.4-2.4,1.8-2.8c0.4-0.4,1-0.6,1.6-0.6h0.1c0.3,0,1-0.2,2-0.6c1.4-0.6,2.5-0.9,3.3-0.9
			c2.3-3.3,4.4-6.3,6.1-8.9c1.6-2.7,3.6-6.1,5.8-10.1c0.5-0.7,1.1-1.8,1.9-3.4c0.8-1.4,1.4-2.3,1.7-2.4c0.1-0.1,0.4-0.1,0.7-0.1
			c0.4,0,0.8-0.1,1.1-0.3c0.4-0.1,0.9-0.4,1.5-0.8c0.4-0.3,0.9-0.5,1.4-0.5s0.7,0.3,0.7,0.8c0,0.6-0.4,1.6-1.1,2.9
			c-0.5,0.8-1.8,2.8-4.1,6.3c-1.7,2.6-3.1,5-4.5,6.9c-1.2,1.9-2.7,4.1-4.3,6.5c-0.3,0.4-0.7,0.9-1,1.3c-0.6,0.7-0.9,1.1-0.9,1.2
			s0.1,0.1,0.1,0.1c0.1,0,0.2,0,0.4-0.1c0.5,0,0.9-0.1,1.3-0.1c2.4-0.1,5.5-0.4,9.1-0.7c2.3-0.2,3.8-0.4,4.6-0.4c0.9,0,1.6,0,2-0.1
			c0.4,0,0.8-0.1,1.1-0.3c0.6-0.3,1.1-0.4,1.3-0.4c0.2,0,0.3,0.1,0.3,0.2c0,0.2-0.2,0.6-0.5,1.1c-0.3,0.5-0.7,0.9-1,1.2
			c-0.3,0.7-0.7,1.1-1.1,1.4c-0.4,0.3-1,0.5-1.7,0.7c-0.7,0.2-1.3,0.4-1.7,0.6c-0.4,0.2-1.8,0.5-4.3,0.9c-2.4,0.3-6.8,0.9-13.1,1.7
			c-1.7,2.3-3.1,4.4-4.5,6.3c-1.2,1.9-2.3,3.7-3.1,5.3c-0.8,1.6-1.5,3.3-2.1,4.8c-0.6,1.5-1.1,3-1.5,4.6c0,0.5,0.2,0.8,0.7,0.8
			s0.9-0.4,1.2-1.1c0,0,0,0.2,0.1,0.4c0,0.2,0,0.3,0,0.4c0,1.6-0.6,2.8-1.7,3.8s-2.1,1.3-2.9,1.3c-1,0.6-1.7,0.9-2.2,0.9
			c-0.4,0-0.8-0.3-1.1-0.9c-0.5-0.9-0.7-1.9-0.7-2.9c0-0.5,0-1.1,0.1-1.7c0-0.3,0.1-0.6,0.1-0.9c0.1-0.7,0.2-1.3,0.4-1.8
			c0.2-0.6,0.6-1.4,1.2-2.7c0.6-1.2,1.7-3,3.1-5.5c1.4-2.4,3.5-5.7,6-9.9C329.7,77,329.8,76.9,329.8,76.9z"/>
	</g>
	<g>
		<path class="st1" d="M2.3,3c0,0,1.9,96.6,130.7,124.1c0,0-1.6-16.1,7-30.3c0,0-23.8-16.6-23.6-39.5l-11.2-2.1
			c0,0,6.1,25.1,26.2,43.9c0,0-35.7-24-37.3-46.7l-14.6-3.8c0,0,0,22.8,40.3,53.4c0,0-52-21.7-56.5-59.4l-18.7-8.2
			c0,0-2.3,34.8,59.7,71.1c0,0-68.7-18.4-81.5-83.6c0,0-6.4-4.7-10-7.4C9.6,11.6,2.3,3,2.3,3z"/>
		<path class="st1" d="M125.5,59l9.4,1.4c0,0-0.1,15.5,10.6,29l-3.9,5.2C141.6,94.4,125.5,82.2,125.5,59z"/>
		<path class="st1" d="M141.8,61.2l6.8,0.7c0,0-2,15.2,4,20.6l-5,4.6C147.6,87.1,140.9,81.1,141.8,61.2z"/>
		<path class="st1" d="M154.6,62.4l6.4,0.5c0,0-1,4.3-1,7.9c0.1,3.7,1,6.2,1,6.2l-5.6,3.4C155.4,80.3,152.5,73.3,154.6,62.4z"/>
		<path class="st1" d="M166.7,63.2l5.4,0.3c0,0-0.9,3-1.3,5.1c-0.4,2-0.5,4.7-0.5,4.7l-5.4,1.9C164.9,75.2,163.7,69.8,166.7,63.2z"
			/>
		<path class="st1" d="M177.1,63.7h5.2c0,0-0.7,2.2-1,3.8c-0.3,1.5-0.3,2.4-0.5,4l-5.5,0.7C175.4,72.1,175.4,67.8,177.1,63.7z"/>
		<path class="st1" d="M186.6,63.7l4.7-0.1c0,0-0.5,2.6-0.6,3.9s-0.3,3.9-0.3,3.9h-4.9c0,0,0-1.2,0.2-3.7
			C185.9,65,186.6,63.7,186.6,63.7z"/>
	</g>
	<g>
		<path class="st1" d="M191.1,141.3c-0.2-0.2-0.3-0.5-0.3-1v-22c0-0.5,0.1-0.8,0.3-1c0.2-0.2,0.5-0.3,1-0.3h1.9c0.5,0,0.8,0.1,1,0.3
			c0.2,0.2,0.3,0.5,0.3,1v9.1h11.9v-9.1c0-0.5,0.1-0.8,0.3-1c0.2-0.2,0.6-0.3,1-0.3h1.9c0.5,0,0.8,0.1,1,0.3c0.2,0.2,0.3,0.5,0.3,1
			v22c0,0.4-0.1,0.8-0.3,1c-0.2,0.2-0.6,0.3-1.1,0.3h-1.9c-0.5,0-0.8-0.1-1-0.3c-0.2-0.2-0.3-0.5-0.3-1v-9.3h-11.9v9.3
			c0,0.4-0.1,0.8-0.3,1c-0.2,0.2-0.6,0.3-1.1,0.3h-1.9C191.6,141.6,191.3,141.5,191.1,141.3z"/>
		<path class="st1" d="M218.1,139.6c-1.7-1.6-2.5-4-2.5-6.8s0.8-5.1,2.5-6.8c1.7-1.7,4.2-2.4,7.3-2.4c3.1,0,5.6,0.8,7.3,2.4
			s2.5,4,2.5,6.8s-0.8,5.1-2.5,6.8c-1.7,1.6-4.2,2.4-7.3,2.4C222.1,142.1,219.7,141.3,218.1,139.6z M229.3,137.2
			c0.9-1,1.3-2.4,1.3-4.4c0-1.9-0.4-3.4-1.3-4.3c-0.9-1-2.2-1.4-4-1.4s-2.9,0.5-3.9,1.4c-0.9,1-1.3,2.4-1.3,4.3s0.4,3.4,1.3,4.4
			c0.9,1,2.2,1.5,3.9,1.5C227,138.7,228.3,138.2,229.3,137.2z"/>
		<path class="st1" d="M239.1,141.3c-0.2-0.2-0.3-0.5-0.3-1v-15.1c0-0.4,0.1-0.6,0.2-0.8c0.1-0.1,0.4-0.2,0.8-0.2h1.9
			c0.3,0,0.5,0.1,0.6,0.2c0.1,0.1,0.2,0.3,0.2,0.6l0.1,1.5c0.7-0.9,1.5-1.6,2.4-2c0.9-0.5,2-0.7,3.3-0.7c1,0,2,0.2,2.7,0.7
			c0.7,0.5,1.3,1.1,1.7,2.1c1.3-1.8,3.3-2.8,5.8-2.8c1.7,0,3,0.5,4.1,1.5c1,1,1.5,2.5,1.5,4.7v10.5c0,0.4-0.1,0.8-0.3,1
			c-0.2,0.2-0.6,0.3-1.1,0.3h-1.7c-0.5,0-0.8-0.1-1-0.3s-0.3-0.5-0.3-1v-10.2c0-1.1-0.2-1.9-0.7-2.4c-0.5-0.5-1.2-0.7-2.1-0.7
			c-1,0-1.8,0.3-2.4,1c-0.6,0.6-0.9,1.5-0.9,2.6v9.7c0,0.4-0.1,0.8-0.3,1c-0.2,0.2-0.6,0.3-1,0.3h-1.5c-0.5,0-0.8-0.1-1-0.3
			c-0.2-0.2-0.3-0.5-0.3-1V130c0-1-0.2-1.7-0.6-2.2c-0.4-0.5-1.1-0.7-2-0.7c-1,0-1.9,0.3-2.5,1c-0.6,0.7-1,1.6-1,2.7v9.5
			c0,0.4-0.1,0.8-0.3,1c-0.2,0.2-0.6,0.3-1.1,0.3h-1.6C239.6,141.6,239.3,141.5,239.1,141.3z"/>
		<path class="st1" d="M272.4,141.2c-1.5-0.6-2.7-1.6-3.7-2.9c-0.9-1.3-1.3-3-1.3-5c0-3.1,0.8-5.5,2.5-7.1c1.6-1.6,4.1-2.4,7.1-2.4
			s5.4,0.8,6.9,2.3c1.5,1.5,2.3,3.9,2.3,6.8c0,0.8-0.4,1.3-1.1,1.3h-13.3c0,1.6,0.5,2.8,1.6,3.7s2.6,1.3,4.7,1.3
			c1.9,0,3.7-0.4,5.2-1.3c0.2-0.1,0.3-0.1,0.4-0.1c0.2,0,0.3,0.1,0.4,0.3l0.9,1.5c0.1,0.1,0.1,0.3,0.1,0.4c0,0.2-0.1,0.3-0.3,0.5
			c-1,0.6-2,1-3.3,1.3s-2.4,0.4-4,0.4C275.7,142.1,274,141.8,272.4,141.2z M282.1,131.3c0-1.5-0.4-2.6-1.2-3.6
			c-0.8-0.9-2.1-1.3-3.8-1.3c-1.7,0-2.9,0.4-3.9,1.3c-0.9,0.9-1.3,2-1.3,3.5h10.2V131.3z"/>
		<path class="st1" d="M291.8,139.7c-1.8-1.6-2.7-3.9-2.7-6.8c0-1.8,0.4-3.5,1.2-4.9c0.8-1.4,2-2.5,3.6-3.3c1.5-0.8,3.4-1.2,5.4-1.2
			c1.5,0,2.8,0.1,3.9,0.4c1,0.3,2,0.8,2.9,1.4c0.2,0.1,0.3,0.3,0.3,0.5c0,0.1-0.1,0.3-0.2,0.5l-1,1.7c-0.1,0.2-0.3,0.4-0.4,0.4
			s-0.3-0.1-0.5-0.2c-0.7-0.5-1.5-0.8-2.2-1c-0.7-0.2-1.6-0.3-2.6-0.3c-1.8,0-3.3,0.5-4.3,1.6c-1,1.1-1.5,2.5-1.5,4.4
			c0,1.9,0.5,3.5,1.5,4.4c1,0.9,2.5,1.4,4.6,1.4c1,0,1.9-0.1,2.6-0.4s1.5-0.6,2.1-1c0.2-0.1,0.3-0.2,0.5-0.2c0.1,0,0.3,0.1,0.4,0.4
			l1,1.8c0.1,0.1,0.1,0.3,0.1,0.4c0,0.2-0.1,0.3-0.4,0.5c-1,0.6-2,1.1-3.1,1.4c-1.1,0.3-2.4,0.4-4,0.4
			C296.2,142.1,293.7,141.3,291.8,139.7z"/>
		<path class="st1" d="M311.7,139.9c-1.4-1.4-2.1-3.5-2.1-6.1c0-2,0.4-3.9,1.3-5.4c0.9-1.5,2.1-2.7,3.9-3.7c1.7-0.9,3.6-1.3,5.8-1.3
			c3,0,5.7,0.7,7.8,2.1v14.8c0,0.4-0.1,0.6-0.2,0.8c-0.2,0.1-0.4,0.2-0.8,0.2h-2c-0.3,0-0.5-0.1-0.6-0.2c-0.1-0.1-0.2-0.3-0.3-0.5
			l-0.3-1.4c-0.7,0.9-1.7,1.6-2.7,2c-1.1,0.4-2.4,0.6-4,0.6C315.1,142.1,313.2,141.4,311.7,139.9z M322.6,137.7
			c1-0.7,1.4-1.7,1.4-2.9v-7.1c-0.5-0.3-1-0.4-1.5-0.6c-0.5-0.1-1.1-0.2-1.9-0.2c-1.9,0-3.5,0.6-4.6,1.8c-1.1,1.2-1.7,2.8-1.7,5
			c0,1.7,0.4,3,1.2,3.9s2,1.2,3.8,1.2C320.5,138.8,321.6,138.4,322.6,137.7z"/>
		<path class="st1" d="M333.1,141.3c-0.2-0.2-0.3-0.5-0.3-1v-15.1c0-0.4,0.1-0.6,0.2-0.8c0.1-0.1,0.4-0.2,0.8-0.2h2
			c0.3,0,0.5,0.1,0.6,0.2s0.2,0.3,0.2,0.6l0.1,1.3c1.4-1.7,3.4-2.5,5.6-2.5c1,0,1.8,0.2,2.4,0.5c0.1,0.1,0.2,0.2,0.3,0.3
			c0,0.1,0,0.2,0,0.4l-0.6,2.1c-0.1,0.2-0.2,0.4-0.4,0.4l-0.3-0.1c-0.6-0.3-1.2-0.4-2-0.4c-1.2,0-2.2,0.3-3,1
			c-0.8,0.7-1.2,1.6-1.2,2.8v9.5c0,0.4-0.1,0.8-0.3,1c-0.2,0.2-0.6,0.3-1.1,0.3h-1.9C333.6,141.6,333.3,141.5,333.1,141.3z"/>
		<path class="st1" d="M352.1,141.2c-1.5-0.6-2.7-1.6-3.7-2.9c-0.9-1.3-1.3-3-1.3-5c0-3.1,0.8-5.5,2.5-7.1c1.6-1.6,4.1-2.4,7.1-2.4
			s5.4,0.8,6.9,2.3c1.5,1.5,2.3,3.9,2.3,6.8c0,0.8-0.4,1.3-1.1,1.3h-13.4c0,1.6,0.5,2.8,1.6,3.7s2.6,1.3,4.7,1.3
			c1.9,0,3.7-0.4,5.2-1.3c0.2-0.1,0.3-0.1,0.4-0.1c0.2,0,0.3,0.1,0.4,0.3l0.9,1.5c0.1,0.1,0.1,0.3,0.1,0.4c0,0.2-0.1,0.3-0.3,0.5
			c-1,0.6-2,1-3.3,1.3s-2.4,0.4-4,0.4C355.3,142.1,353.6,141.8,352.1,141.2z M361.7,131.3c0-1.5-0.4-2.6-1.2-3.6
			c-0.8-0.9-2.1-1.3-3.8-1.3c-1.7,0-2.9,0.4-3.9,1.3c-0.9,0.9-1.3,2-1.3,3.5h10.2V131.3z"/>
	</g>
</g>
</svg>
