<?xml version="1.0" encoding="utf-8"?>
<!-- Generator: Adobe Illustrator 21.0.0, SVG Export Plug-In . SVG Version: 6.00 Build 0)  -->
<svg version="1.1" xmlns="http://www.w3.org/2000/svg" xmlns:xlink="http://www.w3.org/1999/xlink" x="0px" y="0px"
	 viewBox="0 0 308.5 154" style="enable-background:new 0 0 308.5 154;" xml:space="preserve">
<style type="text/css">
	.st0{display:none;}
	.st1{display:inline;fill:#5881C2;}
	.st2{display:inline;fill:#6FC6A4;}
	.st3{display:inline;fill:none;stroke:#000000;stroke-width:0.2545;stroke-miterlimit:10;}
	.st4{display:inline;fill:#ABD037;}
	.st5{display:inline;fill:#2E8A42;}
	.st6{display:inline;fill:none;stroke:#000000;stroke-width:0.25;stroke-miterlimit:10;}
	.st7{fill:#308A42;}
	.st8{fill:#ABD037;}
	.st9{fill:#2E8A42;stroke:#2E8A42;stroke-width:0.25;stroke-linecap:round;stroke-linejoin:round;stroke-miterlimit:10;}
	.st10{fill:url(#SVGID_1_);}
	.st11{fill:url(#SVGID_2_);}
	.st12{fill:url(#SVGID_3_);}
	.st13{fill:url(#SVGID_4_);}
	.st14{fill:url(#SVGID_5_);}
	.st15{fill:url(#SVGID_6_);}
	.st16{fill:url(#SVGID_7_);}
</style>
<g id="Layer_9" class="st0">
	<rect x="140.3" y="-79" class="st1" width="149.2" height="144.5"/>
	<rect x="140.3" y="65.5" class="st2" width="149.2" height="144.5"/>
	<line class="st3" x1="-3" y1="65.5" x2="140.5" y2="65.5"/>
</g>
<g id="Layer_9_copy" class="st0">
	<rect x="140.3" y="-79" class="st4" width="149.2" height="144.5"/>
	<rect x="140.3" y="65.5" class="st5" width="149.2" height="144.5"/>
	<line class="st6" x1="-2.5" y1="65.5" x2="136" y2="65.5"/>
</g>
<g id="Layer_9_copy_2">
</g>
<g id="Layer_10_copy_3">
	<g>
		<g>
			<g>
				<path class="st7" d="M173.1,122.7c-0.3,0.8-0.5,1.5-0.7,2.1c-0.2,0.6-0.4,1-0.7,1.4c-0.2,0.3-0.4,0.5-0.6,0.6
					c-0.2,0.1-0.5,0.2-0.9,0.2c-0.4,0-0.6,0.1-0.8,0.1c-0.6,0.1-1,0.2-1.2,0.2c-0.2,0-0.3-0.1-0.3-0.3c0-0.1,0.1-0.3,0.2-0.6
					c0.6-1.5,1.1-2.7,1.5-3.6c0.4-0.8,0.8-1.6,1.3-2.3c0.6-1,1.2-1.8,1.6-2.5c0.5-0.7,0.9-1.4,1.4-2.2c0.7-1.1,1.3-2,1.8-2.8
					c0.5-0.8,1.1-1.8,1.8-2.9c0.9-1.3,1.5-2.5,2-3.5c0.5-1,1-2.2,1.5-3.5c0.2-0.6,0.4-1,0.7-1.2c0.3-0.2,0.7-0.3,1.3-0.4
					c0.6,0,1,0.1,1.2,0.2c0.2,0.2,0.3,0.5,0.3,1c-0.1,1-0.5,2.1-1.2,3.4c-0.7,1.2-1.8,3-3.3,5.4l-0.9,1.4c-0.6,0.9-1.2,1.9-1.8,2.8
					c-0.4,0.6-0.7,1-0.9,1.4c-0.2,0.3-0.4,0.7-0.6,1.1c-0.2,0.5-0.4,0.8-0.6,1.1c-0.2,0.2-0.4,0.5-0.6,0.8c-0.2,0.3-0.5,0.6-0.6,0.8
					c-0.2,0.3-0.3,0.7-0.5,1.2C173.2,122.4,173.1,122.6,173.1,122.7z M201.2,100.6c-0.2,0-0.5,0-0.7,0c-1.6,0-4-0.1-7.1-0.4
					c-3.1-0.3-5.5-0.4-7.1-0.4c-0.3,0-0.6,0-1,0c-0.5,0-0.8,0-1,0c-0.5,0-1.1,0.1-1.8,0.1c-0.7,0-1.5,0-2.5,0c-0.4,0-0.6,0-0.8,0.1
					c-0.2,0-0.3,0.1-0.5,0.2c-0.1,0.1-0.3,0.1-0.5,0.2c-0.2,0-0.4,0.1-0.7,0.1c-0.9,0-1.7,0.1-2.4,0.3c-0.8,0.1-1.4,0.3-2.1,0.6
					c-0.1,0.1-0.3,0.3-0.4,0.7c-0.1,0.3-0.3,0.6-0.4,0.9c-0.1,0.3-0.3,0.5-0.6,0.8c0,0,0,0-0.1,0.1c-0.3,0.3-0.6,0.6-0.8,0.8
					c-0.2,0.2-0.5,0.3-0.8,0.3c-0.4,0-0.8-0.2-1.2-0.6c-0.2-0.2-0.3-0.4-0.3-0.6c0-0.3,0.2-0.8,0.7-1.5c0.2-0.2,0.4-0.5,0.6-1
					c0.2-0.4,0.4-0.6,0.5-0.7c1.1-0.7,2.1-1.3,2.9-1.7c0.9-0.4,1.7-0.7,2.5-0.9c0.8-0.1,1.8-0.2,2.9-0.4c0.7-0.1,1.3-0.2,1.7-0.3
					c0.5-0.1,1-0.1,1.6-0.1c1.8-0.1,3.3-0.1,4.6-0.1c1.2,0,2.4,0,3.5,0.1c1.1,0.1,2.3,0.2,3.6,0.3c0.8,0.1,1.7,0.2,2.7,0.3
					c1,0.1,2.1,0.2,3.4,0.3c1.1,0.1,1.9,0.1,2.3,0.2c0.4,0,0.7,0.1,0.8,0.1c0.3,0.1,0.4,0.4,0.4,0.9c0,0.4-0.2,0.7-0.5,1
					c-0.1,0-0.2,0.1-0.4,0.3c-0.2,0.1-0.4,0.2-0.5,0.2C201.8,100.6,201.6,100.6,201.2,100.6z"/>
				<path class="st7" d="M199.7,99.4l-7.1,12.4c-1.4,2.3-2.6,4.4-3.6,6.4c-1,1.9-1.8,3.7-2.3,5.5c0.9-0.9,2.1-1.9,3.5-3.2
					c1.2-1.1,2.1-1.9,2.7-2.5c0.6-0.6,1.1-1.2,1.6-2c0.1-0.1,0.3-0.4,0.7-0.8c0.4-0.4,0.8-0.8,1.3-1.3c0.5-0.5,1-0.9,1.5-1.4
					c0.5-0.5,0.9-0.8,1.2-1c0.3-0.2,0.5-0.4,0.7-0.4c0,0,0.1,0,0.2,0c0.1,0,0.3,0.1,0.4,0.1c0.2,0.1,0.5,0.1,0.7,0.1
					c0.4,0,0.8-0.2,1.3-0.5c-0.2,0.6-0.4,1.4-0.7,2.2s-0.7,1.6-1.1,2.4c-0.7,1.3-1.3,2.4-1.8,3.4c-0.5,0.9-0.8,1.7-1,2.2
					c-0.2,0.6-0.4,1-0.4,1.4c-0.1,0.4-0.1,0.7-0.1,1.1l0,0.3c0,0.5,0.1,0.8,0.2,1c0.1,0.2,0.4,0.3,0.9,0.3c0.7,0,1.8-0.2,3.2-0.7
					c0.2,0,0.3,0,0.3,0.1c0,0.2-0.2,0.6-0.7,1c-0.5,0.5-1,0.8-1.6,1.1c-0.1,0.3-0.4,0.6-0.7,0.8c-0.3,0.2-0.6,0.3-0.9,0.4
					c-0.3,0.1-0.7,0.1-1.1,0.1c-0.6,0-1.1-0.1-1.6-0.3c-0.5-0.2-0.8-0.5-1-1c-0.2-0.6-0.3-1.2-0.3-1.7c0-0.7,0.2-1.7,0.6-3.1
					c0.1-0.4,0.3-0.9,0.6-1.4c0.2-0.4,0.4-0.8,0.4-1c0-0.2,0.3-0.6,0.7-1.4c0.9-1.4,1.5-2.5,2-3.5c-0.5,0.3-1.1,0.8-1.8,1.6
					c-0.6,0.7-1.4,1.7-2.3,2.8c-0.6,0.8-1,1.2-1.1,1.2c-0.8,0.6-1.8,1.6-3.1,2.9c-0.8,0.8-1.4,1.5-2,2c-0.6,0.5-1.2,1-2,1.5
					c-0.1,0.1-0.4,0.2-0.8,0.3c-0.7,0.1-1.2,0.3-1.5,0.4c0,0,0-0.1,0-0.2c0-0.1-0.1-0.2-0.1-0.3v-0.1c0,0,0-0.1,0-0.1
					c0.3-1.7,0.8-3.5,1.5-5.3c0.7-1.8,1.5-3.7,2.4-5.5c0.9-1.8,1.8-3.5,2.8-5.2c0.9-1.7,2.1-3.7,3.5-6c1.4-2.3,2.5-4.2,3.3-5.6
					c0.8-1.5,1.6-2.9,2.2-4.2c0.4-0.7,0.7-1.2,0.8-1.5c0.1-0.2,0.2-0.4,0.3-0.5c0-0.1,0.2-0.3,0.3-0.7c0.2-0.3,0.5-0.9,0.8-1.7
					l1.4-2.9c0.3-0.6,0.6-1,0.9-1.2c0.3-0.2,0.6-0.2,1-0.2c0,0,0.1,0,0.3,0c0.6,0,0.9,0.3,0.9,0.9c0,1.1,0,1.8-0.1,2.2
					c0,0.4-0.2,0.8-0.3,1.4c0-0.4-0.1-0.8-0.2-1.1c-0.1-0.4-0.3-0.7-0.5-1.1c-0.1,0.3-0.3,0.7-0.6,1.3c-0.3,0.6-0.8,1.5-1.4,2.8
					c-0.5,1-0.9,1.8-1.3,2.5c-0.4,0.7-0.6,1.3-0.8,1.6L199.7,99.4z"/>
				<path class="st7" d="M212.4,119.1c-1.5,0.6-3.1,0.9-4.8,0.9c-0.1,0-0.3,0-0.6,0c-0.3,0-0.5,0-0.5,0c-0.3,0.4-0.6,0.7-0.9,1
					c-0.6,0.7-1,1.2-1.2,1.5c-0.2,0.3-0.3,0.7-0.3,1.3c0,0.4,0.2,0.7,0.6,0.9c0.4,0.2,0.8,0.2,1.1,0.2c0.5,0,1-0.1,1.7-0.3
					c0.6-0.2,1.5-0.5,2.6-0.9l0.2-0.1c0.2-0.1,0.7-0.4,1.5-0.8c0.6-0.3,1-0.6,1.3-0.7c0.3-0.2,0.6-0.3,0.8-0.4
					c0.2-0.1,0.5-0.3,0.9-0.6c0.4-0.3,0.6-0.4,0.7-0.4c0,0,0.1,0,0.1,0.1c-0.1,0.5-0.2,0.8-0.3,1c-0.1,0.2-0.2,0.4-0.4,0.5
					c-0.1,0.1-0.3,0.2-0.4,0.4c-0.3,0.3-0.9,0.7-1.8,1.2c-0.9,0.5-1.8,0.9-2.7,1.3c-1.5,0.6-2.8,1.2-4,1.6c-1.2,0.4-2,0.6-2.4,0.6
					c-1.8,0-2.7-0.6-2.7-1.8c0-0.7,0.1-1.3,0.3-1.9c0.2-0.6,0.4-1.1,0.7-1.6c0.1-0.2,0.4-0.6,0.9-1.3c0.3-0.5,0.6-0.8,0.8-1.1
					c0.2-0.3,0.3-0.4,0.3-0.5c0,0,0,0,0-0.1c0,0-0.1-0.1-0.1-0.1c0-0.1,0.1-0.3,0.3-0.5c0.2-0.2,0.4-0.5,0.6-0.7
					c0.2-0.2,0.5-0.4,0.7-0.6c0.2-0.2,0.4-0.3,0.5-0.4c0.1,0,0.3-0.2,0.6-0.5c0.3-0.3,0.6-0.7,1.1-1.2c0.4-0.4,0.7-0.8,0.9-1.1
					c0.2-0.3,0.5-0.5,0.7-0.7c0.6-0.6,1.2-1.1,1.8-1.7c0.6-0.5,1.3-1,1.9-1.4c0.6-0.4,1.2-0.7,1.7-0.9c0.5-0.2,0.9-0.3,1.3-0.3
					c1.4,0.4,2.1,1.1,2.1,2.3c0,1.1-0.6,2.7-1.9,4.8C215.2,117.5,213.9,118.5,212.4,119.1z M213.5,115.8c0.6-0.6,1.1-1.3,1.5-2.1
					c0.2-0.3,0.3-0.6,0.3-0.9c0-0.4-0.2-0.6-0.6-0.6c-0.2,0-0.5,0.1-0.7,0.2c-0.3,0.1-0.8,0.4-1.5,1c-0.7,0.5-1.3,1.1-1.9,1.7
					c-0.3,0.2-0.5,0.4-0.6,0.6c-0.1,0.2-0.2,0.3-0.2,0.5c0,0.1-0.1,0.3-0.2,0.3c-0.5,0.4-0.7,0.6-0.7,0.8c0,0.1,0.1,0.2,0.4,0.2
					c0.3,0,0.6,0,1.1-0.1c0.4-0.1,1-0.2,1.5-0.4C212.3,116.8,212.9,116.4,213.5,115.8z"/>
				<path class="st8" d="M222.4,119.2c-0.2,0.3-0.6,0.8-1.2,1.5c-0.6,0.7-1.1,1.5-1.7,2.4c-0.6,0.9-1.3,1.8-1.9,2.8
					c-0.7,1-1.2,1.8-1.7,2.6c-0.5,0.4-0.9,0.7-1.2,0.8c-0.4,0.2-0.9,0.3-1.7,0.5c-0.3-0.2-0.5-0.5-0.5-0.7c0-0.4,0.4-0.9,1.1-1.6
					c0.8-1.2,1.6-2.4,2.4-3.6c0.8-1.1,1.9-2.6,3.2-4.2c2.4-3,4.1-5.3,5.1-7c0.3-0.5,0.6-0.9,0.8-1.2c0.2-0.3,0.4-0.7,0.5-1.1
					c0.1-0.4,0.3-1,0.5-1.7c0.2-0.7,0.3-1.6,0.5-2.6l0.1-0.4c0.1-0.5,0.2-0.8,0.4-1c0.2-0.2,0.6-0.4,1.4-0.8
					c0.2-0.1,0.5-0.2,0.8-0.4c0.3-0.2,0.6-0.4,0.9-0.4c0.5,0,0.9,0.2,1.2,0.7c0.3,0.5,0.5,1,0.5,1.7c0,3.3,0,5.5-0.1,6.6
					c0,0.9-0.1,2-0.3,3.4c-0.2,1.3-0.3,2.3-0.3,2.9c0,0.7,0.1,1.3,0.2,1.8c0.1,0.5,0.3,1.1,0.4,1.7c0,0,0,0.1,0,0.1
					c0,0.2,0.2,0.4,0.3,0.6c0.2,0.2,0.4,0.4,0.7,0.5c0,0,0.1,0,0.1,0c0.6,0.3,1.2,0.5,1.5,0.5l0.1,0c0,0,0.1,0,0.1,0
					c0.6-0.2,1.2-0.5,1.8-1c0.6-0.5,1.2-1.2,1.9-2.1c1.2-1.4,2.2-2.7,3-3.7c0.8-1.1,1.4-2,1.8-2.7c0.4-0.7,0.7-1.4,0.9-1.9
					c0.2-0.5,0.3-1,0.3-1.4c0-0.5,0.1-1.3,0.2-2.4c0.1-1,0.1-1.7,0.1-2.1c0-0.1,0-0.4,0.1-0.7c0.1-0.3,0.2-0.6,0.2-0.9
					c0.1-0.3,0.1-0.6,0.1-1.1c0-1.6,0.1-2.7,0.2-3.3c0.1-0.6,0.3-1.1,0.6-1.3c0.1,0,0.2-0.2,0.5-0.4c0.4-0.3,0.8-0.6,1-0.7
					c0.3-0.2,0.5-0.2,0.8-0.2c0.5,0,0.9,0.2,1.1,0.5c0.3,0.3,0.4,0.6,0.4,0.9c0,0,0,0.1,0,0.1c0,0.1,0,0.1,0,0.1
					c-0.1,0.5-0.2,1-0.2,1.5c0,0.6-0.1,1.2-0.1,2c0,1.1-0.1,1.7-0.1,1.9c-0.4,0.8-0.7,1.6-0.9,2.3c-0.2,0.7-0.4,1.4-0.5,2.1
					l-0.1,0.3c-0.2,0.7-0.4,1.3-0.6,1.9c-0.2,0.5-0.5,1-0.7,1.5c-0.3,0.5-0.6,1-0.9,1.5c-0.3,0.5-0.8,1.2-1.5,2.1
					c-1.2,1.6-2.2,3.1-3.1,4.4c-0.6,0.8-1.2,1.4-1.7,1.8c-0.5,0.4-1,0.8-1.6,1c-0.3,0.2-0.6,0.3-0.7,0.4c-0.4,0.4-0.8,0.7-1.2,1
					c-0.4,0.3-1,0.6-1.7,0.9c-0.8,0.4-1.6,0.7-2.4,0.7c-0.6,0-1-0.1-1.3-0.4c-0.7-0.6-1.3-1.2-1.7-1.7c-0.4-0.6-0.6-1-0.6-1.4
					c0-0.2,0-0.5,0.1-0.8c0-0.5,0.1-0.8,0.1-1.1c0-0.2,0-0.5-0.1-0.6c-0.1-0.4-0.2-0.9-0.3-1.3c0-0.5-0.1-1.3-0.1-2.4
					c0-1.2,0-2,0-2.2v-3.5C226.8,113.7,224.9,116.3,222.4,119.2z"/>
				<path class="st8" d="M259,119.1c-1.5,0.6-3.1,0.9-4.8,0.9c-0.1,0-0.3,0-0.6,0c-0.3,0-0.5,0-0.5,0c-0.3,0.4-0.6,0.7-0.9,1
					c-0.6,0.7-1,1.2-1.2,1.5c-0.2,0.3-0.3,0.7-0.3,1.3c0,0.4,0.2,0.7,0.6,0.9c0.4,0.2,0.8,0.2,1.1,0.2c0.5,0,1-0.1,1.7-0.3
					c0.6-0.2,1.5-0.5,2.6-0.9l0.2-0.1c0.2-0.1,0.7-0.4,1.5-0.8c0.6-0.3,1-0.6,1.3-0.7c0.3-0.2,0.6-0.3,0.8-0.4
					c0.2-0.1,0.5-0.3,0.9-0.6c0.4-0.3,0.6-0.4,0.7-0.4c0,0,0.1,0,0.1,0.1c-0.1,0.5-0.2,0.8-0.3,1c-0.1,0.2-0.2,0.4-0.4,0.5
					c-0.1,0.1-0.3,0.2-0.4,0.4c-0.3,0.3-0.9,0.7-1.8,1.2c-0.9,0.5-1.8,0.9-2.7,1.3c-1.5,0.6-2.8,1.2-4,1.6c-1.2,0.4-2,0.6-2.4,0.6
					c-1.8,0-2.7-0.6-2.7-1.8c0-0.7,0.1-1.3,0.3-1.9c0.2-0.6,0.4-1.1,0.7-1.6c0.1-0.2,0.4-0.6,0.9-1.3c0.3-0.5,0.6-0.8,0.8-1.1
					c0.2-0.3,0.3-0.4,0.3-0.5c0,0,0,0,0-0.1c0,0-0.1-0.1-0.1-0.1c0-0.1,0.1-0.3,0.3-0.5c0.2-0.2,0.4-0.5,0.6-0.7
					c0.2-0.2,0.5-0.4,0.7-0.6c0.2-0.2,0.4-0.3,0.5-0.4c0.1,0,0.3-0.2,0.6-0.5c0.3-0.3,0.6-0.7,1.1-1.2c0.4-0.4,0.7-0.8,0.9-1.1
					c0.2-0.3,0.5-0.5,0.7-0.7c0.6-0.6,1.2-1.1,1.8-1.7c0.6-0.5,1.3-1,1.9-1.4c0.6-0.4,1.2-0.7,1.7-0.9c0.5-0.2,0.9-0.3,1.3-0.3
					c1.4,0.4,2.1,1.1,2.1,2.3c0,1.1-0.6,2.7-1.9,4.8C261.8,117.5,260.6,118.5,259,119.1z M260.1,115.8c0.6-0.6,1.1-1.3,1.5-2.1
					c0.2-0.3,0.3-0.6,0.3-0.9c0-0.4-0.2-0.6-0.6-0.6c-0.2,0-0.5,0.1-0.7,0.2c-0.3,0.1-0.8,0.4-1.5,1c-0.7,0.5-1.3,1.1-1.9,1.7
					c-0.3,0.2-0.5,0.4-0.6,0.6c-0.1,0.2-0.2,0.3-0.2,0.5c0,0.1-0.1,0.3-0.2,0.3c-0.5,0.4-0.7,0.6-0.7,0.8c0,0.1,0.1,0.2,0.4,0.2
					c0.3,0,0.6,0,1.1-0.1c0.4-0.1,1-0.2,1.5-0.4C258.9,116.8,259.5,116.4,260.1,115.8z"/>
				<path class="st8" d="M272.2,124.7c-0.2,0.3-0.4,0.5-0.7,0.9c-0.3,0.3-0.6,0.6-0.9,0.9c-0.3,0.3-0.7,0.4-1,0.5
					c-0.5,0.1-1.1,0.3-1.8,0.4c-0.7,0.1-1.3,0.2-1.9,0.2c-0.6,0-1.3-0.1-2.2-0.3c-0.8-0.2-1.5-0.4-2.1-0.6c-0.2,0-0.4-0.1-0.6-0.2
					c-0.2-0.1-0.3-0.3-0.3-0.5c0-0.2,0.1-0.4,0.4-0.7c0.3-0.3,0.7-0.5,1.2-0.6c0.1-0.2,0.2-0.4,0.3-0.6c0.1-0.1,0.4-0.3,0.8-0.6
					l0.1,0c0,0,0.1,0,0.1,0c0.2,0,0.4,0.2,0.5,0.6c0.2,0.1,0.6,0.2,1,0.3c0.4,0.1,0.9,0.3,1.3,0.3c0.4,0.1,0.9,0.2,1.3,0.3
					c0.5,0.1,0.9,0.1,1.2,0.1c0.6,0,0.9-0.1,0.9-0.4c0-0.1,0-0.3-0.1-0.5c0,0-0.1-0.2-0.1-0.4c-0.1-0.3-0.2-0.6-0.3-0.8
					c-0.1-0.2-0.3-0.5-0.6-0.9c-0.4-0.6-0.7-1.3-0.9-2c-0.2-0.7-0.3-1.2-0.3-1.7c0-0.5,0.1-1,0.2-1.4c0.1-0.4,0.3-0.9,0.6-1.5
					c0.2-0.3,0.3-0.5,0.3-0.6c0.2-0.4,0.5-0.9,0.9-1.4c0.4-0.5,0.9-0.9,1.4-1.3c0.5-0.4,1-0.8,1.5-1.1c0.5-0.3,1-0.6,1.4-0.8
					c1.1-0.5,2-0.8,2.9-0.8c0.6,0,1,0.1,1.3,0.3c0.2,0.2,0.3,0.4,0.3,0.7c0,0.3-0.1,0.6-0.3,0.9c-0.1,0.2-0.3,0.6-0.6,1
					c-0.3,0.4-0.7,0.9-1.1,1.5c-0.4,0.5-0.8,1-1.2,1.5c-0.4,0.5-0.8,0.8-1.1,1.1c0,0-0.1,0.1-0.2,0.1c-0.1,0.1-0.2,0.1-0.3,0.1
					c-0.1,0-0.2-0.1-0.4-0.4c0-0.1,0.2-0.3,0.6-0.7c0.4-0.5,0.8-1,1.1-1.5c0.3-0.4,0.5-0.8,0.6-1.1c0.1-0.1,0.1-0.3,0.1-0.4
					c0-0.2-0.1-0.5-0.2-0.6c-0.2-0.2-0.4-0.3-0.7-0.3c-0.2,0-0.5,0.1-0.9,0.3c-0.3,0.1-0.5,0.2-0.7,0.3c-0.7,0.3-1.2,0.6-1.5,0.9
					c-0.3,0.3-0.5,0.7-0.7,1.1c0,0.2-0.1,0.4-0.3,0.6c-0.1,0.2-0.3,0.5-0.3,0.7c-0.1,0.3-0.1,0.7-0.1,1.3c0,0.5,0,0.9,0.1,1.2
					c0.1,0.3,0.3,0.7,0.7,1.3c0.1,0.2,0.2,0.4,0.3,0.6c0,0.1,0.1,0.2,0.1,0.4c0.1,0.1,0.2,0.4,0.4,0.7c0.2,0.3,0.3,0.6,0.4,0.8
					c0.1,0.2,0.1,0.5,0.1,0.8c0,0.1,0,0.3,0.1,0.6c0.1,0.3,0.1,0.6,0.1,0.7C272.5,124.2,272.4,124.4,272.2,124.7z"/>
				<path class="st8" d="M281.4,113.7C281.4,113.6,281.3,113.6,281.4,113.7c-0.3-0.1-0.6,0.1-1,0.5c-0.5,0.4-0.8,0.9-1.2,1.4
					c-0.1-0.6-0.1-1.1-0.1-1.3c0-0.4,0.1-0.7,0.2-1.1c0.4-0.8,0.7-1.2,0.9-1.4c0.2-0.2,0.5-0.3,0.8-0.3h0c0.2,0,0.5-0.1,1-0.3
					c0.7-0.3,1.3-0.5,1.7-0.5c1.2-1.6,2.2-3.1,3-4.5c0.8-1.4,1.8-3,2.9-5.1c0.2-0.4,0.6-0.9,1-1.7c0.4-0.7,0.7-1.2,0.8-1.2
					c0.1,0,0.2-0.1,0.4-0.1c0.2,0,0.4-0.1,0.6-0.1c0.2-0.1,0.5-0.2,0.8-0.4c0.2-0.2,0.5-0.3,0.7-0.3c0.2,0,0.4,0.1,0.4,0.4
					c0,0.3-0.2,0.8-0.6,1.5c-0.2,0.4-0.9,1.4-2,3.2c-0.9,1.3-1.6,2.5-2.2,3.5c-0.6,1-1.4,2.1-2.2,3.3c-0.2,0.2-0.3,0.4-0.5,0.7
					c-0.3,0.4-0.4,0.6-0.4,0.6c0,0,0,0.1,0.1,0.1c0,0,0.1,0,0.2,0c0.2,0,0.5,0,0.7,0c1.2-0.1,2.8-0.2,4.6-0.4
					c1.2-0.1,1.9-0.2,2.3-0.2c0.5,0,0.8,0,1,0c0.2,0,0.4-0.1,0.6-0.1c0.3-0.1,0.5-0.2,0.7-0.2c0.1,0,0.1,0,0.1,0.1
					c0,0.1-0.1,0.3-0.3,0.6c-0.2,0.2-0.3,0.4-0.5,0.6c-0.2,0.3-0.4,0.6-0.6,0.7c-0.2,0.1-0.5,0.3-0.9,0.3c-0.4,0.1-0.7,0.2-0.9,0.3
					c-0.2,0.1-0.9,0.3-2.1,0.4c-1.2,0.2-3.4,0.5-6.6,0.8c-0.9,1.2-1.6,2.2-2.2,3.2c-0.6,1-1.2,1.8-1.6,2.7c-0.4,0.8-0.8,1.6-1.1,2.4
					c-0.3,0.8-0.6,1.5-0.8,2.3c0,0.3,0.1,0.4,0.4,0.4c0.2,0,0.5-0.2,0.6-0.6c0,0,0,0.1,0,0.2c0,0.1,0,0.2,0,0.2
					c0,0.8-0.3,1.4-0.8,1.9c-0.6,0.5-1.1,0.7-1.5,0.7c-0.5,0.3-0.9,0.4-1.1,0.4c-0.2,0-0.4-0.1-0.6-0.4c-0.2-0.5-0.4-1-0.4-1.5
					c0-0.2,0-0.5,0.1-0.9c0-0.1,0-0.3,0.1-0.5c0-0.3,0.1-0.7,0.2-0.9c0.1-0.3,0.3-0.7,0.6-1.4c0.3-0.6,0.9-1.5,1.6-2.8
					c0.7-1.2,1.7-2.9,3-4.9C281.3,113.8,281.4,113.7,281.4,113.7z"/>
			</g>
			<g>
				<path class="st9" d="M177.3,138.8h-1.2l-4.7-7.1v7.1h-1.1v-9h1.2l4.7,7.1v-7.1h1.1V138.8z"/>
				<path class="st9" d="M183.6,139c-1,0-1.8-0.2-2.3-0.6c-0.5-0.4-0.8-0.9-1-1.4c-0.1-0.3-0.1-0.6-0.2-0.9c0-0.3,0-0.7,0-1v-5.2
					h1.2v5.2c0,1.2,0.2,1.9,0.6,2.3c0.4,0.4,1,0.6,1.7,0.6c0.8,0,1.3-0.2,1.7-0.6c0.4-0.4,0.6-1.2,0.6-2.3v-5.2h1.2v5.2
					c0,1.1-0.1,1.9-0.4,2.4C186.2,138.5,185.2,139,183.6,139z"/>
				<path class="st9" d="M197.5,138.8h-1.3l-0.8-2.4c-0.1-0.2-0.2-0.4-0.3-0.6c-0.1-0.2-0.3-0.3-0.4-0.5c-0.2-0.1-0.4-0.2-0.6-0.3
					c-0.2-0.1-0.4-0.1-0.6-0.1h-2.2v3.8H190v-9h4c0.3,0,0.7,0,0.9,0c0.3,0,0.5,0.1,0.8,0.1c0.2,0.1,0.4,0.2,0.6,0.3
					c0.2,0.2,0.3,0.3,0.5,0.5c0.1,0.2,0.2,0.4,0.3,0.7c0.1,0.2,0.1,0.5,0.1,0.8c0,0.3,0,0.6-0.1,0.9c-0.1,0.3-0.2,0.5-0.4,0.7
					c-0.2,0.2-0.4,0.4-0.6,0.5c-0.2,0.1-0.5,0.2-0.8,0.3c0.6,0.2,1.1,0.8,1.4,1.6L197.5,138.8z M191.2,133.9h2.7c0.4,0,0.7,0,1-0.1
					c0.3-0.1,0.5-0.1,0.7-0.3c0.2-0.1,0.3-0.3,0.4-0.5c0.1-0.2,0.1-0.4,0.1-0.7c0-1-0.6-1.5-1.9-1.5h-2.8V133.9z"/>
				<path class="st9" d="M203.2,139c-0.6,0-1.2-0.1-1.7-0.2c-0.5-0.2-0.9-0.4-1.2-0.6c-0.3-0.3-0.6-0.6-0.7-1
					c-0.2-0.4-0.3-0.8-0.3-1.2h1.1c0,0.3,0.1,0.6,0.3,0.9c0.1,0.2,0.3,0.4,0.6,0.6c0.2,0.2,0.5,0.3,0.8,0.4c0.3,0.1,0.6,0.1,1,0.1
					c0.3,0,0.6,0,0.9-0.1c0.3-0.1,0.5-0.2,0.7-0.3c0.2-0.1,0.3-0.3,0.5-0.5c0.1-0.2,0.2-0.4,0.2-0.6c0-0.3,0-0.5-0.1-0.6
					c-0.1-0.2-0.3-0.3-0.5-0.4c-0.2-0.1-0.5-0.2-0.9-0.3c-0.4-0.1-0.8-0.2-1.3-0.3c-0.5-0.1-1-0.2-1.3-0.4c-0.4-0.2-0.7-0.3-0.9-0.5
					c-0.4-0.4-0.7-0.9-0.7-1.5c0-0.4,0.1-0.7,0.2-1c0.2-0.3,0.4-0.6,0.6-0.8c0.3-0.2,0.6-0.4,1-0.5c0.4-0.1,0.8-0.2,1.3-0.2
					c0.5,0,1,0.1,1.4,0.2c0.4,0.1,0.8,0.3,1.1,0.5c0.3,0.2,0.5,0.5,0.7,0.8s0.3,0.7,0.3,1.1h-1.2c-0.1-1.1-0.9-1.6-2.2-1.6
					c-0.7,0-1.2,0.1-1.5,0.4c-0.4,0.2-0.5,0.6-0.5,1c0,0.2,0,0.4,0.1,0.5c0.1,0.1,0.2,0.3,0.3,0.4s0.4,0.2,0.6,0.3
					c0.3,0.1,0.6,0.2,1,0.3c0.8,0.2,1.4,0.3,1.9,0.5c0.2,0.1,0.4,0.2,0.7,0.3c0.2,0.1,0.4,0.3,0.5,0.5c0.2,0.2,0.3,0.4,0.4,0.6
					c0.1,0.2,0.1,0.5,0.1,0.8c0,0.4-0.1,0.7-0.2,1.1c-0.2,0.3-0.4,0.6-0.7,0.9c-0.3,0.2-0.6,0.4-1.1,0.6
					C204.2,138.9,203.7,139,203.2,139z"/>
				<path class="st9" d="M210.3,138.8h-1.2v-9h1.2V138.8z"/>
				<path class="st9" d="M220.3,138.8h-1.2l-4.7-7.1v7.1h-1.1v-9h1.2l4.7,7.1v-7.1h1.1V138.8z"/>
				<path class="st9" d="M227.1,139c-0.6,0-1.2-0.1-1.8-0.3c-0.5-0.2-1-0.5-1.4-0.9c-0.4-0.4-0.7-0.9-0.9-1.5
					c-0.2-0.6-0.3-1.2-0.3-1.9c0-0.7,0.1-1.3,0.3-1.9c0.2-0.6,0.5-1.1,0.9-1.5c0.4-0.4,0.8-0.7,1.4-0.9c0.5-0.2,1.1-0.3,1.8-0.3
					c0.5,0,1,0.1,1.5,0.2c0.5,0.1,0.9,0.3,1.2,0.6c0.3,0.3,0.6,0.6,0.8,0.9c0.2,0.4,0.3,0.7,0.4,1.2h-1.2c0-0.3-0.1-0.5-0.2-0.8
					c-0.1-0.2-0.3-0.4-0.5-0.6c-0.2-0.2-0.5-0.3-0.8-0.4c-0.3-0.1-0.7-0.1-1-0.1c-0.5,0-0.9,0.1-1.3,0.2c-0.4,0.2-0.7,0.4-1,0.7
					c-0.3,0.3-0.5,0.7-0.6,1.1c-0.2,0.4-0.2,1-0.2,1.5c0,0.6,0.1,1.1,0.2,1.5c0.1,0.4,0.4,0.8,0.6,1.1c0.3,0.3,0.6,0.5,1,0.7
					c0.4,0.2,0.8,0.2,1.3,0.2c1.3,0,2.3-0.4,2.9-1.3v-1.4h-2.4v-1.1h3.5v4.6h-0.8l-0.3-0.9C229.3,138.6,228.4,139,227.1,139z"/>
				<path class="st9" d="M246.6,138.8h-1.2v-4.2h-4.7v4.2h-1.2v-9h1.2v3.7h4.7v-3.7h1.2V138.8z"/>
				<path class="st9" d="M253.3,129.7c0.6,0,1.2,0.1,1.7,0.3c0.5,0.2,1,0.5,1.4,0.9c0.4,0.4,0.7,0.9,0.9,1.5
					c0.2,0.6,0.3,1.2,0.3,1.9c0,0.7-0.1,1.3-0.3,1.9c-0.2,0.6-0.5,1.1-0.9,1.5c-0.4,0.4-0.8,0.7-1.4,0.9c-0.5,0.2-1.1,0.3-1.7,0.3
					c-0.6,0-1.2-0.1-1.7-0.3c-0.5-0.2-1-0.5-1.4-0.9c-0.4-0.4-0.7-0.9-0.9-1.5c-0.2-0.6-0.3-1.2-0.3-1.9c0-0.7,0.1-1.3,0.3-1.9
					c0.2-0.6,0.5-1.1,0.9-1.5c0.4-0.4,0.8-0.7,1.4-0.9C252.1,129.8,252.7,129.7,253.3,129.7z M253.3,137.9c0.4,0,0.9-0.1,1.2-0.2
					c0.4-0.2,0.7-0.4,1-0.7c0.3-0.3,0.5-0.7,0.6-1.1c0.2-0.4,0.2-1,0.2-1.5c0-0.6-0.1-1.1-0.2-1.5c-0.2-0.4-0.4-0.8-0.6-1.1
					c-0.3-0.3-0.6-0.5-1-0.7s-0.8-0.2-1.2-0.2c-0.4,0-0.9,0.1-1.2,0.2s-0.7,0.4-1,0.7c-0.3,0.3-0.5,0.7-0.6,1.1
					c-0.2,0.4-0.2,1-0.2,1.5c0,0.6,0.1,1.1,0.2,1.5c0.2,0.4,0.4,0.8,0.6,1.1c0.3,0.3,0.6,0.5,1,0.7
					C252.4,137.9,252.8,137.9,253.3,137.9z"/>
				<path class="st9" d="M268.4,138.8h-1.1v-7.6l-2.6,7.6h-1.1l-2.6-7.6v7.6H260v-9h1.8l2.4,7.5l2.4-7.5h1.8V138.8z"/>
				<path class="st9" d="M277.9,138.8h-6.7v-9h6.5v1.1h-5.3v2.7h5v1.1h-5v3h5.5V138.8z"/>
			</g>
		</g>
		<g>
			<linearGradient id="SVGID_1_" gradientUnits="userSpaceOnUse" x1="79.4084" y1="75.5093" x2="126.0955" y2="45.6597">
				<stop  offset="0" style="stop-color:#2E8A42"/>
				<stop  offset="0.9951" style="stop-color:#ABD037"/>
			</linearGradient>
			<path class="st10" d="M12,15c0,0,1.9,96.4,130.4,123.8c0,0-1.6-16,7-30.2c0,0-23.7-16.5-23.6-39.4l-11.2-2.1
				c0,0,6.1,25,26.2,43.8c0,0-35.6-23.9-37.2-46.6L89,60.5c0,0,0,22.7,40.2,53.3c0,0-51.9-21.7-56.3-59.3l-18.7-8.2
				c0,0-2.3,34.8,59.6,70.9c0,0-68.5-18.4-81.3-83.4c0,0-6.4-4.7-9.9-7.4C19.2,23.6,12,15,12,15z"/>
			<linearGradient id="SVGID_2_" gradientUnits="userSpaceOnUse" x1="103.7258" y1="113.5432" x2="150.4139" y2="83.6929">
				<stop  offset="0" style="stop-color:#2E8A42"/>
				<stop  offset="0.9951" style="stop-color:#ABD037"/>
			</linearGradient>
			<path class="st11" d="M134.9,70.8l9.4,1.4c0,0-0.1,15.5,10.5,28.9l-3.9,5.1C150.9,106.2,134.9,94.1,134.9,70.8z"/>
			<linearGradient id="SVGID_3_" gradientUnits="userSpaceOnUse" x1="105.7697" y1="116.738" x2="152.4566" y2="86.8885">
				<stop  offset="0" style="stop-color:#2E8A42"/>
				<stop  offset="0.9951" style="stop-color:#ABD037"/>
			</linearGradient>
			<path class="st12" d="M151.1,73l6.8,0.7c0,0-2,15.2,4,20.6l-5,4.5C156.8,98.8,150.1,92.9,151.1,73z"/>
			<linearGradient id="SVGID_4_" gradientUnits="userSpaceOnUse" x1="107.5809" y1="119.5804" x2="154.2714" y2="89.7286">
				<stop  offset="0" style="stop-color:#2E8A42"/>
				<stop  offset="0.9951" style="stop-color:#ABD037"/>
			</linearGradient>
			<path class="st13" d="M163.9,74.3l6.4,0.5c0,0-1.1,4.2-1,7.9c0.1,3.7,1,6.1,1,6.1l-5.6,3.3C164.7,92.1,161.7,85.1,163.9,74.3z"/>
			<linearGradient id="SVGID_5_" gradientUnits="userSpaceOnUse" x1="110.025" y1="123.3905" x2="156.7082" y2="93.5434">
				<stop  offset="0" style="stop-color:#2E8A42"/>
				<stop  offset="0.9951" style="stop-color:#ABD037"/>
			</linearGradient>
			<path class="st14" d="M175.9,75.1l5.4,0.3c0,0-0.9,3-1.3,5c-0.4,2-0.5,4.6-0.5,4.6l-5.4,1.9C174.2,87,173,81.6,175.9,75.1z"/>
			<linearGradient id="SVGID_6_" gradientUnits="userSpaceOnUse" x1="112.694" y1="127.5558" x2="159.3775" y2="97.7085">
				<stop  offset="0" style="stop-color:#2E8A42"/>
				<stop  offset="0.9951" style="stop-color:#ABD037"/>
			</linearGradient>
			<path class="st15" d="M186.3,75.4h5.2c0,0-0.7,2.3-1,3.7c-0.3,1.5-0.3,2.4-0.5,4l-5.4,0.7C184.6,83.9,184.6,79.6,186.3,75.4z"/>
			<linearGradient id="SVGID_7_" gradientUnits="userSpaceOnUse" x1="115.4135" y1="131.8305" x2="162.1024" y2="101.9797">
				<stop  offset="0" style="stop-color:#2E8A42"/>
				<stop  offset="0.9951" style="stop-color:#ABD037"/>
			</linearGradient>
			<path class="st16" d="M195.8,75.4l4.7-0.1c0,0-0.5,2.6-0.6,3.8c-0.1,1.2-0.3,3.9-0.3,3.9h-4.9c0,0,0-1.2,0.2-3.7
				C195.1,76.8,195.8,75.4,195.8,75.4z"/>
		</g>
	</g>
</g>
</svg>
