<svg id="Layer_10_copy_3" data-name="Layer 10 copy 3" xmlns="http://www.w3.org/2000/svg" viewBox="0 0 368 249.23"><defs><style>.cls-1{fill:none;}.cls-2,.cls-3{fill:#4c86c6;}.cls-3{font-size:30.21px;font-family:Mitr-Regular, Mitr;}</style></defs><title>LOGO_NEST_HOMECARE</title><rect class="cls-1" y="22.23" width="368" height="227"/><path class="cls-2" d="M210.21,115.27q-.61.67-2,2.49t-2.89,4q-1.52,2.19-3.19,4.65t-2.83,4.22a9.74,9.74,0,0,1-2.07,1.4,14.94,14.94,0,0,1-2.73.85q-.85-.55-.85-1.16,0-1,1.82-2.61,1.95-3.1,4-5.93t5.32-7q5.84-7.48,8.45-11.55.79-1.15,1.28-1.94a9.48,9.48,0,0,0,.85-1.82,26,26,0,0,0,.76-2.8q.39-1.76.82-4.32l.12-.73a3.3,3.3,0,0,1,.67-1.64A10.5,10.5,0,0,1,220.18,90a11.75,11.75,0,0,0,1.34-.73A2.72,2.72,0,0,1,223,88.7a2.37,2.37,0,0,1,2,1.12,4.7,4.7,0,0,1,.79,2.77q0,8.15-.18,10.94-.06,2.13-.49,5.59a40.59,40.59,0,0,0-.43,4.86,17.54,17.54,0,0,0,.34,2.95q.27,1.31.7,2.77a1,1,0,0,0,.06.24,2.57,2.57,0,0,0,.58.94,4,4,0,0,0,1.12.88.47.47,0,0,1,.18.06,6.14,6.14,0,0,0,2.55.79l.24-.06h.24a7.81,7.81,0,0,0,3-1.64,25.57,25.57,0,0,0,3.19-3.4q3-3.52,5-6.2a42.2,42.2,0,0,0,3-4.53,17.23,17.23,0,0,0,1.43-3.13,9.86,9.86,0,0,0,.46-2.25q.06-1.22.3-4,.18-2.43.24-3.52a3.8,3.8,0,0,1,.24-1.09q.24-.79.4-1.52a8.88,8.88,0,0,0,.15-1.76,37.74,37.74,0,0,1,.27-5.53,3.13,3.13,0,0,1,1.07-2.13l.85-.61A15.85,15.85,0,0,1,252.13,80a2.57,2.57,0,0,1,3.19.36A2.2,2.2,0,0,1,256,82v.24a1,1,0,0,0-.06.24,18.33,18.33,0,0,0-.33,2.55q-.09,1.4-.15,3.28a14.66,14.66,0,0,1-.24,3.16,31.64,31.64,0,0,0-1.43,3.83q-.52,1.76-.88,3.47l-.12.55a27.46,27.46,0,0,1-1,3.1,22.19,22.19,0,0,1-1.22,2.52q-.67,1.19-1.49,2.4t-2.4,3.4q-2.92,4.07-5.11,7.29a18.09,18.09,0,0,1-2.86,3,18.59,18.59,0,0,1-2.61,1.73,6.08,6.08,0,0,0-1.09.73,9.59,9.59,0,0,1-2,1.64,28.25,28.25,0,0,1-2.8,1.46,8.32,8.32,0,0,1-4,1.09,3.11,3.11,0,0,1-2.13-.61,15,15,0,0,1-2.77-2.89,4.9,4.9,0,0,1-1-2.34,12.62,12.62,0,0,1,.12-1.4q.12-1.22.12-1.76a3.78,3.78,0,0,0-.12-1,8.64,8.64,0,0,1-.46-2.22q-.09-1.19-.09-4-.06-3.1-.06-3.65V102A89.52,89.52,0,0,1,210.21,115.27Z" transform="translate(0 22.23)"/><path class="cls-2" d="M270.79,115.11a21.39,21.39,0,0,1-8,1.49,8.44,8.44,0,0,1-.91-.06H261l-1.46,1.7a17.49,17.49,0,0,0-1.91,2.4,4.76,4.76,0,0,0-.46,2.1,1.47,1.47,0,0,0,1,1.49,5,5,0,0,0,1.79.4,10.09,10.09,0,0,0,2.74-.46q1.58-.45,4.26-1.43l.3-.12q.55-.24,2.55-1.34,1.4-.79,2.22-1.22a9.76,9.76,0,0,1,1.37-.61,9,9,0,0,0,1.52-1,3.19,3.19,0,0,1,1.16-.73c.08,0,.12.06.12.18a7.5,7.5,0,0,1-.49,1.7,2.7,2.7,0,0,1-.67.85,4.38,4.38,0,0,0-.61.61,13,13,0,0,1-3,2,41.31,41.31,0,0,1-4.5,2.16q-3.65,1.58-6.66,2.58a16.5,16.5,0,0,1-4,1q-4.44,0-4.44-3a10,10,0,0,1,.49-3.13,10.59,10.59,0,0,1,1.22-2.58,22.75,22.75,0,0,1,1.52-2.13c.57-.77,1-1.37,1.28-1.79a2.13,2.13,0,0,0,.42-.88.18.18,0,0,0-.06-.12.24.24,0,0,1-.12-.24,1.76,1.76,0,0,1,.42-.88,9,9,0,0,1,1-1.16q.61-.58,1.19-1.06a3.81,3.81,0,0,1,.88-.61,2.67,2.67,0,0,0,1-.82l1.79-2c.61-.73,1.11-1.32,1.52-1.76a13.62,13.62,0,0,1,1.09-1.09q1.46-1.46,3-2.77a34.3,34.3,0,0,1,3.07-2.28A21,21,0,0,1,274.47,99a5.44,5.44,0,0,1,2.13-.58q3.53.91,3.52,3.77,0,2.61-3.22,8A13.21,13.21,0,0,1,270.79,115.11Zm1.7-5.41a13.94,13.94,0,0,0,2.52-3.5,3.37,3.37,0,0,0,.42-1.46.91.91,0,0,0-1-1,2.24,2.24,0,0,0-1.15.37,12.57,12.57,0,0,0-2.52,1.61,19,19,0,0,0-3.07,2.89,5,5,0,0,0-.94.94,1.91,1.91,0,0,0-.33.82,1.1,1.1,0,0,1-.37.55q-1.22.91-1.22,1.28c0,.2.22.3.67.3a8.49,8.49,0,0,0,1.76-.25q1.09-.24,2.55-.61A7.7,7.7,0,0,0,272.49,109.7Z" transform="translate(0 22.23)"/><path class="cls-2" d="M292.55,124.29a18.22,18.22,0,0,1-1.16,1.43,11.16,11.16,0,0,1-1.52,1.43,5.11,5.11,0,0,1-1.61.88,29.84,29.84,0,0,1-3,.67,18.86,18.86,0,0,1-3.16.3,20.05,20.05,0,0,1-3.62-.55,30.55,30.55,0,0,1-3.43-1,2.38,2.38,0,0,1-.94-.33.84.84,0,0,1-.46-.76,1.92,1.92,0,0,1,.7-1.19,4.08,4.08,0,0,1,2-1,3.28,3.28,0,0,1,.58-1,6,6,0,0,1,1.25-.91l.12-.06h.18c.37,0,.63.35.79,1a15,15,0,0,0,1.64.58q1.09.33,2.16.58t2.22.46a11.11,11.11,0,0,0,1.95.21c1,0,1.52-.24,1.52-.73a1.91,1.91,0,0,0-.24-.79,4.23,4.23,0,0,1-.18-.73,10.2,10.2,0,0,0-.52-1.37,9.73,9.73,0,0,0-.94-1.49,12,12,0,0,1-1.52-3.25,10.42,10.42,0,0,1-.49-2.83,7.21,7.21,0,0,1,.33-2.28q.33-1,.94-2.4a8.17,8.17,0,0,0,.42-.91,9.16,9.16,0,0,1,1.49-2.25,19.21,19.21,0,0,1,2.25-2.19,30.85,30.85,0,0,1,2.52-1.88,21.86,21.86,0,0,1,2.25-1.34,11.06,11.06,0,0,1,4.8-1.28,3.81,3.81,0,0,1,2.19.55,1.45,1.45,0,0,1,.55,1.22,3.11,3.11,0,0,1-.43,1.46,13.51,13.51,0,0,1-1.06,1.67q-.76,1.07-1.79,2.4t-2,2.49a16.47,16.47,0,0,1-1.82,1.88l-.37.18a1.43,1.43,0,0,1-.49.18q-.3,0-.61-.61a8,8,0,0,1,.91-1.22q1-1.34,1.79-2.4a9.59,9.59,0,0,0,1.06-1.79,1.38,1.38,0,0,0,.18-.73,1.58,1.58,0,0,0-.39-1.06,1.49,1.49,0,0,0-1.19-.46,7.42,7.42,0,0,0-1.46.49q-.67.31-1.15.49a9.49,9.49,0,0,0-2.43,1.55,4,4,0,0,0-1.09,1.79,3.42,3.42,0,0,1-.42,1,4.16,4.16,0,0,0-.55,1.19,10.17,10.17,0,0,0-.24,2.16,6.6,6.6,0,0,0,.24,2,9.16,9.16,0,0,0,1.22,2.16,2.9,2.9,0,0,1,.49.91,3.28,3.28,0,0,0,.24.61,11.5,11.5,0,0,0,.73,1.15,5.53,5.53,0,0,1,.64,1.34,5.12,5.12,0,0,1,.15,1.34,5.07,5.07,0,0,0,.12.91,5.82,5.82,0,0,1,.18,1.22A2.07,2.07,0,0,1,292.55,124.29Z" transform="translate(0 22.23)"/><path class="cls-2" d="M307.72,106.15a.11.11,0,0,0-.12-.12A3.35,3.35,0,0,0,306,107a8.34,8.34,0,0,0-1.91,2.34,20.66,20.66,0,0,1-.18-2.19,4.16,4.16,0,0,1,.37-1.76,8.72,8.72,0,0,1,1.52-2.34,2.31,2.31,0,0,1,1.34-.52h.06a5.75,5.75,0,0,0,1.7-.55,7.79,7.79,0,0,1,2.74-.79q3-4.07,5-7.45t4.8-8.36a31.25,31.25,0,0,0,1.58-2.8,8.31,8.31,0,0,1,1.4-2.07,1.13,1.13,0,0,1,.61-.12,5.4,5.4,0,0,0,1-.21,5.19,5.19,0,0,0,1.28-.7,1.85,1.85,0,0,1,1.16-.43q.61,0,.61.67a5.65,5.65,0,0,1-1,2.43q-.61,1-3.34,5.23-2.13,3.34-3.71,5.75l-3.59,5.44-.85,1.09a4.67,4.67,0,0,0-.73,1c0,.08.08.12.12.12a1.67,1.67,0,0,0,.37-.06c.4,0,.77-.06,1.09-.06q3-.18,7.6-.61,2.85-.3,3.77-.3a16,16,0,0,0,1.67-.06,3.3,3.3,0,0,0,.94-.24,3.26,3.26,0,0,1,1.09-.36c.16,0,.24.06.24.18a1.91,1.91,0,0,1-.42.91,5.18,5.18,0,0,1-.85,1,2.94,2.94,0,0,1-.94,1.19,5,5,0,0,1-1.43.58,10.29,10.29,0,0,0-1.46.49,15.49,15.49,0,0,1-3.56.73q-3,.43-10.91,1.4-2.13,2.86-3.68,5.23t-2.61,4.41a37.21,37.21,0,0,0-1.79,4q-.73,1.91-1.28,3.8,0,.67.61.67t1-.91a3,3,0,0,0,.06.36v.37a3.79,3.79,0,0,1-1.4,3.13,53,53,0,0,1-4.32,1.85q-.55,0-.91-.73a5.16,5.16,0,0,1-.61-2.43,10.49,10.49,0,0,1,.12-1.46c0-.24.08-.5.12-.79a10.12,10.12,0,0,1,.33-1.55,14.8,14.8,0,0,1,1-2.25q.82-1.55,2.61-4.56t5-8.18A.9.9,0,0,0,307.72,106.15Z" transform="translate(0 22.23)"/><path class="cls-2" d="M35.23,44.75S36.83,125.17,144,148c0,0-1.35-13.31,5.83-25.19,0,0-19.76-13.74-19.65-32.87l-9.32-1.75S126,109.07,142.7,124.7c0,0-29.65-19.92-31.05-38.89L99.5,82.69s0,18.94,33.55,44.47c0,0-43.29-18.08-47-49.47L70.49,70.83s-1.91,29,49.73,59.18c0,0-57.14-15.34-67.8-69.55,0,0-5.37-3.88-8.26-6.21S35.23,44.75,35.23,44.75Z" transform="translate(0 22.23)"/><path class="cls-2" d="M137.74,91.26l7.83,1.16a42.32,42.32,0,0,0,8.76,24.13l-3.23,4.27A38.62,38.62,0,0,1,137.74,91.26Z" transform="translate(0 22.23)"/><path class="cls-2" d="M151.24,93.13l5.63.6s-1.67,12.7,3.31,17.16L156,114.67S150.46,109.74,151.24,93.13Z" transform="translate(0 22.23)"/><path class="cls-2" d="M161.91,94.19l5.34.39a29.65,29.65,0,0,0-.82,6.62,17.4,17.4,0,0,0,.82,5.12l-4.66,2.76S160.14,103.17,161.91,94.19Z" transform="translate(0 22.23)"/><path class="cls-2" d="M172,94.87l4.51.27s-.75,2.51-1.09,4.18a28.39,28.39,0,0,0-.42,3.88l-4.47,1.58A16.9,16.9,0,0,1,172,94.87Z" transform="translate(0 22.23)"/><path class="cls-2" d="M180.65,95.14H185s-.59,1.89-.82,3.12-.22,2-.42,3.32l-4.52.59A20.43,20.43,0,0,1,180.65,95.14Z" transform="translate(0 22.23)"/><path class="cls-2" d="M188.55,95.14l3.9-.08s-.41,2.2-.5,3.21-.25,3.22-.25,3.22h-4.05s0-1,.16-3.07A9.11,9.11,0,0,1,188.55,95.14Z" transform="translate(0 22.23)"/><text y="22.23"></text><text y="22.23"></text><text class="cls-3" transform="translate(190.19 182.22)">Homecare</text><text y="22.23"></text></svg>